<svg width="728" height="728" viewBox="0 0 728 728" fill="none" xmlns="http://www.w3.org/2000/svg">
<rect width="728" height="728" rx="150" fill="#141414"/>
<path d="M293.033 146.411C294.433 146.402 295.833 146.392 297.275 146.383C301.867 146.355 306.458 146.338 311.05 146.324C312.634 146.318 314.219 146.312 315.851 146.306C324.245 146.277 332.639 146.256 341.033 146.243C349.624 146.227 358.214 146.178 366.804 146.121C373.479 146.084 380.154 146.072 386.829 146.067C389.992 146.06 393.154 146.044 396.317 146.017C420.887 145.823 445.938 147.113 468.648 157.516C469.747 158.002 470.846 158.489 471.977 158.991C509.474 176.139 539.702 206.101 555.259 244.605C563.579 267.18 564.595 288.794 564.605 312.635C564.61 315.05 564.615 317.466 564.62 319.881C564.628 324.925 564.631 329.968 564.63 335.011C564.63 341.415 564.649 347.818 564.674 354.222C564.69 359.207 564.693 364.192 564.692 369.177C564.693 371.535 564.7 373.892 564.711 376.25C564.803 397.832 563.192 417.923 555.826 438.442C555.348 439.811 554.869 441.18 554.375 442.59C550.961 451.543 546.496 459.65 541.504 467.798C540.901 468.794 540.298 469.79 539.677 470.816C536.276 476.2 535.009 478.206 533.185 479.384C530.736 480.966 527.494 479.833 525.448 477.756C523.95 476.245 522.453 474.735 520.955 473.224C520.236 472.493 519.517 471.762 518.776 471.009C513.785 465.987 508.587 461.293 503.239 456.656C481.36 437.502 463.208 416.72 459.929 386.543C459.724 381.359 459.676 376.2 459.697 371.013C459.683 369.105 459.666 367.197 459.646 365.29C459.601 360.317 459.585 355.346 459.58 350.374C459.567 342.421 459.516 334.469 459.448 326.516C459.431 323.779 459.432 321.041 459.435 318.303C459.316 297.88 457.73 281.638 443.546 266.132C431.011 254.335 415.571 248.708 398.529 248.728C397.359 248.718 396.189 248.709 394.983 248.699C391.139 248.672 387.294 248.666 383.45 248.663C380.757 248.654 378.065 248.645 375.372 248.635C369.735 248.618 364.097 248.612 358.46 248.614C351.27 248.614 344.081 248.575 336.892 248.526C331.331 248.495 325.77 248.489 320.209 248.49C317.561 248.487 314.912 248.475 312.263 248.452C290.512 248.288 273.389 250.993 256.703 266.171C242.662 280.684 240.175 296.675 240.329 316.126C240.324 318.295 240.317 320.463 240.308 322.631C240.298 327.149 240.313 331.665 240.346 336.182C240.387 341.924 240.363 347.665 240.321 353.407C240.295 357.877 240.303 362.346 240.322 366.815C240.326 368.93 240.321 371.046 240.304 373.161C240.192 391.277 243.825 408.026 256.931 421.362C263.856 427.396 270.114 431.241 279.081 433.283C292.115 437.077 300.567 448.675 309.551 458.261C313.179 461.971 317.051 465.314 320.992 468.683C326.985 473.959 332.472 479.77 338.059 485.467C343.59 491.062 349.268 496.341 355.228 501.474C359.672 505.407 363.799 509.638 367.949 513.878C374.206 520.216 380.499 526.364 387.369 532.047C389.332 533.835 387.619 536.671 384.965 536.688C371.948 536.769 358.931 536.832 345.914 536.872C338.976 536.894 332.038 536.924 325.1 536.973C318.381 537.02 311.663 537.045 304.944 537.056C302.404 537.064 299.864 537.079 297.324 537.102C250.599 537.515 211.974 524.611 177.67 492.172C158.414 472.035 145.352 446.931 138.795 419.939C138.443 418.497 138.09 417.054 137.726 415.568C134.51 401.143 133.918 387.41 134.008 372.669C134.009 370.242 134.008 367.814 134.006 365.386C134.006 360.341 134.021 355.296 134.047 350.25C134.079 343.814 134.08 337.378 134.07 330.942C134.066 325.945 134.075 320.949 134.089 315.952C134.095 313.579 134.096 311.206 134.094 308.833C134.092 297.143 134.187 286.108 137.372 274.761C137.999 271.293 138.622 267.823 139.24 264.353C141.251 254.32 144.303 245.523 148.759 236.332C149.476 234.84 150.193 233.348 150.933 231.811C169.456 195.418 201.582 166.942 240.481 154.05C257.996 148.734 274.736 146.465 293.033 146.411Z" fill="white"/>
<path d="M322.403 436.028C322.403 435.005 323.227 434.165 324.25 434.156C338.889 434.032 353.529 433.937 368.169 433.877C375.253 433.848 382.337 433.807 389.421 433.743C396.259 433.681 403.097 433.647 409.936 433.632C412.543 433.622 415.15 433.601 417.757 433.57C421.413 433.529 425.068 433.523 428.724 433.526C430.335 433.495 430.335 433.495 431.978 433.464C441.764 433.54 447.442 438.023 454.293 444.491C455.662 445.778 455.662 445.778 457.059 447.09C458.48 448.446 458.48 448.446 459.931 449.829C460.926 450.769 461.921 451.709 462.947 452.678C470.406 459.755 477.698 466.982 484.883 474.336C487.948 477.334 491.022 480.134 494.268 482.921C502.377 489.942 509.783 497.659 517.302 505.299C522.406 510.452 527.502 515.516 533.009 520.238C541.361 527.408 548.93 535.387 556.649 543.223C562.92 549.551 569.263 555.649 576.025 561.449C579.9 564.828 583.509 568.415 587.139 572.056C587.835 572.746 588.53 573.435 589.246 574.146C592.59 577.499 590.455 580.831 585.72 580.896C573.174 581.068 560.628 581.202 548.08 581.29C540.932 581.342 533.785 581.412 526.637 581.525C519.734 581.634 512.832 581.693 505.928 581.719C503.3 581.737 500.671 581.773 498.043 581.827C474.858 582.284 474.858 582.284 467.566 575.969C467.353 575.724 467.14 575.479 466.928 575.233C464.448 572.35 461.94 569.476 459.052 567.002C448.519 557.368 438.371 547.406 428.36 537.23C422.579 531.381 416.67 525.827 410.436 520.465C405.8 516.387 401.542 511.95 397.238 507.528C393.422 503.651 389.516 499.984 385.384 496.442C376.947 489.144 369.257 481.089 361.433 473.147C355.145 466.801 348.782 460.69 342 454.876C338.428 451.753 335.145 448.421 331.832 445.025C327.794 440.694 327.563 440.447 323.238 437.573C322.718 437.227 322.403 436.652 322.403 436.028Z" fill="#F80506"/>
</svg>
